# xmcd
#
# Track frame offsets:
#	170
#	14192
#	28957
#	39885
#	62737
#	76457
#	88405
#	99985
#	121717
#	133675
#	145207
#	163597
#
# Disc length: 2405 seconds
#
# Revision: 7
# Processed by: cddbd v1.5.2PL0 Copyright (c) Steve Scherf et al.
# Submitted via: audiograbber 1.83.01
#
DISCID=a109630c
DTITLE=The Reverend Horton Heat - Smoke 'em if You Got 'em
DYEAR=1990
DGENRE=Rockabilly
TTITLE0=Bullet
TTITLE1=I'm Mad
TTITLE2=Bad Reputation
TTITLE3=It's a Dark Day
TTITLE4=Big Dwarf Rodeo
TTITLE5=Psychobilly Freak Out
TTITLE6=Put It To Me Straight
TTITLE7=Marijuana
TTITLE8=Baby, You Know Who
TTITLE9=Eat Steak
TTITLE10="D" For Dangerous
TTITLE11=Love Whip
EXTD=YEAR: 1990
EXTT0=
EXTT1=
EXTT2=
EXTT3=
EXTT4=
EXTT5=
EXTT6=
EXTT7=
EXTT8=
EXTT9=
EXTT10=
EXTT11=
PLAYORDER=
